<svg width="100" height="100" viewBox="0 0 22 22" xmlns="http://www.w3.org/2000/svg">
    <path d="M11.0136 0.866211C5.43485 0.866211 0.893555 5.40751 0.893555 10.9862C0.893555 16.5649 5.43485 21.1062 11.0136 21.1062C14.0038 21.1062 16.6965 19.7996 18.5468 17.7332C18.6279 17.6478 18.691 17.547 18.7325 17.4368C18.7739 17.3266 18.7928 17.2092 18.788 17.0916C18.7833 16.974 18.755 16.8585 18.7048 16.752C18.6546 16.6455 18.5836 16.5501 18.4959 16.4716C18.4082 16.393 18.3056 16.3328 18.1943 16.2946C18.0829 16.2564 17.965 16.241 17.8475 16.2491C17.7301 16.2573 17.6155 16.289 17.5105 16.3423C17.4055 16.3955 17.3123 16.4693 17.2363 16.5593C15.7047 18.2697 13.4925 19.3462 11.0136 19.3462C6.38602 19.3462 2.65355 15.6137 2.65355 10.9862C2.65355 6.35868 6.38602 2.62621 11.0136 2.62621C13.4921 2.62621 15.7043 3.70258 17.2363 5.41316C17.3123 5.50311 17.4055 5.5769 17.5105 5.63017C17.6155 5.68344 17.7301 5.7151 17.8475 5.72328C17.965 5.73145 18.0829 5.71598 18.1943 5.67778C18.3056 5.63958 18.4082 5.57942 18.4959 5.50086C18.5836 5.42231 18.6546 5.32696 18.7048 5.22046C18.755 5.11396 18.7833 4.99847 18.788 4.88083C18.7928 4.7632 18.7739 4.6458 18.7325 4.5356C18.691 4.4254 18.6279 4.32463 18.5468 4.23926C16.6961 2.17288 14.0034 0.866211 11.0136 0.866211ZM17.1366 7.01762C16.9616 7.01783 16.7907 7.07021 16.6456 7.16806C16.5005 7.2659 16.3879 7.40477 16.3221 7.56693C16.2564 7.72909 16.2404 7.90718 16.2764 8.07843C16.3123 8.24969 16.3985 8.40635 16.5239 8.5284L18.1017 10.1062H10.1061C9.98944 10.1046 9.87367 10.1261 9.76546 10.1696C9.65725 10.2131 9.55875 10.2776 9.47571 10.3595C9.39266 10.4414 9.32672 10.539 9.28171 10.6465C9.2367 10.7541 9.21352 10.8696 9.21352 10.9862C9.21352 11.1028 9.2367 11.2183 9.28171 11.3259C9.32672 11.4335 9.39266 11.531 9.47571 11.6129C9.55875 11.6948 9.65725 11.7593 9.76546 11.8028C9.87367 11.8463 9.98944 11.8679 10.1061 11.8662H18.1017L16.5239 13.444C16.4394 13.5251 16.372 13.6222 16.3255 13.7297C16.2791 13.8372 16.2545 13.9528 16.2533 14.0699C16.2522 14.187 16.2743 14.3031 16.3186 14.4115C16.3628 14.5199 16.4283 14.6184 16.5111 14.7012C16.5939 14.784 16.6923 14.8494 16.8007 14.8937C16.9091 14.9379 17.0253 14.9601 17.1423 14.9589C17.2594 14.9577 17.3751 14.9332 17.4826 14.8867C17.59 14.8403 17.6872 14.7729 17.7682 14.6884L20.77 11.6866C20.8784 11.6043 20.9662 11.498 21.0265 11.376C21.0869 11.254 21.1181 11.1197 21.1178 10.9836C21.1174 10.8476 21.0855 10.7134 21.0246 10.5917C20.9637 10.4701 20.8754 10.3642 20.7666 10.2824L17.7682 7.28402C17.6861 7.19962 17.5879 7.13255 17.4794 7.08679C17.3709 7.04103 17.2544 7.01751 17.1366 7.01762Z"/>
</svg>
